
<svg id="proj_mgmt" data-name="proj mgmt" xmlns="http://www.w3.org/2000/svg" viewBox="0 0 1430 800"><defs><style>.cls-1,.cls-2,.cls-3,.cls-4,.cls-6{fill:none;stroke-linecap:round;stroke-width:2px;}.cls-1{stroke:#e9eaec;}.cls-1,.cls-2,.cls-3,.cls-4{stroke-miterlimit:10;}.cls-2{stroke:#eee;}.cls-3{stroke:#ddd;}.cls-4{stroke:#ddd;}.cls-5{fill:#ddd;}.cls-6{stroke:#ddd;stroke-linejoin:round;}</style></defs><title>satellite-launch-site-heroes</title><line class="cls-1" x1="201.21" y1="368.26" x2="156.48" y2="368.26"/><path class="cls-1" d="M85.65,188.13V219.5a18.78,18.78,0,0,0,18.78,18.78h55.64a18.78,18.78,0,0,1,18.78,18.78v91.11"/><path class="cls-1" d="M105.59,218a18.78,18.78,0,0,0,18.78-18.78"/><path class="cls-1" d="M201.21,393.25V359a3,3,0,0,0-3-3H159.35a3,3,0,0,0-3,3v71.22a3,3,0,0,0,3,3h38.86a3,3,0,0,0,3-3v-3.63"/><rect class="cls-2" x="164.92" y="378.51" width="27.72" height="10.25" rx="1" ry="1" transform="translate(357.57 767.27) rotate(-180)"/><rect class="cls-3" x="182.99" y="401.32" width="46.47" height="17.19" rx="2" ry="2" transform="translate(412.45 819.83) rotate(-180)"/><rect class="cls-4" x="1310.08" y="511.12" width="46.47" height="17.19" rx="2" ry="2" transform="translate(2666.62 1039.43) rotate(-180)"/><rect class="cls-1" x="42.39" y="164.1" width="86.52" height="17.19" rx="2" ry="2" transform="translate(171.3 345.39) rotate(-180)"/><line class="cls-1" x1="256.07" y1="388.26" x2="211.34" y2="388.26"/><path class="cls-1" d="M211.21,426.58v23.63a3,3,0,0,0,3,3h38.86a3,3,0,0,0,3-3V379a3,3,0,0,0-3-3H214.21a3,3,0,0,0-3,3v14.26"/><line class="cls-1" x1="146.48" y1="400.8" x2="101.74" y2="400.8"/><rect class="cls-1" x="101.62" y="388.53" width="44.86" height="77.22" rx="3" ry="3" transform="translate(248.1 854.27) rotate(-180)"/><path class="cls-1" d="M0,544l9.88-.19A18.78,18.78,0,0,0,28.61,525l-0.08-71.7a18.78,18.78,0,0,1,18.73-18.82H91.53"/><line class="cls-1" x1="78.76" y1="414.83" x2="42.15" y2="414.83"/><line class="cls-1" x1="176.82" y1="218" x2="164.85" y2="218"/><line class="cls-1" x1="153.03" y1="218" x2="98.34" y2="218"/><line class="cls-1" x1="130.35" y1="198.63" x2="100.3" y2="198.63"/><line class="cls-1" x1="273.41" y1="648.12" x2="256.03" y2="648.12"/><line class="cls-1" x1="216.03" y1="648.12" x2="198.65" y2="648.12"/><line class="cls-1" x1="182.23" y1="648.12" x2="124.11" y2="648.12"/><line class="cls-1" x1="72.35" y1="198.63" x2="54.57" y2="198.63"/><line class="cls-1" x1="219.23" y1="667.5" x2="184.25" y2="667.5"/><line class="cls-1" x1="287.94" y1="667.5" x2="247.44" y2="667.5"/><line class="cls-1" x1="25.71" y1="563.36" y2="563.36"/><line class="cls-1" x1="189.71" y1="451.47" x2="170.4" y2="451.47"/><path class="cls-1" d="M233.64,368.1v-29a18.78,18.78,0,0,1,18.78-18.78h85.06a18.78,18.78,0,0,0,18.78-18.78L356.17,298"/><path class="cls-1" d="M1085.44,204.2l0.19,61.44a18.78,18.78,0,0,0,18.82,18.73l61.7-.08A18.78,18.78,0,0,1,1185,303v4.27"/><line class="cls-1" x1="1233.34" y1="365.33" x2="1207.79" y2="365.33"/><line class="cls-1" x1="1430" y1="257.93" x2="1354.79" y2="257.93"/><line class="cls-1" x1="1336.12" y1="258.56" x2="1319.1" y2="258.56"/><line class="cls-1" x1="1050.88" y1="179.65" x2="1038.41" y2="179.65"/><line class="cls-1" x1="1374.54" y1="237.45" x2="1336.12" y2="237.45"/><line class="cls-1" x1="1175.51" y1="178.51" x2="1121.64" y2="178.51"/><line class="cls-1" x1="1085.44" x2="1085.44" y2="112.3"/><line class="cls-1" x1="1206.09" y1="178.51" x2="1189.9" y2="178.51"/><line class="cls-1" x1="1149.46" y1="159.14" x2="1121.64" y2="159.14"/><line class="cls-1" x1="1371.87" y1="120.38" x2="1351.7" y2="120.38"/><line class="cls-1" x1="1374.54" y1="101.01" x2="1325.06" y2="101.01"/><line class="cls-1" x1="1395.49" y1="81.63" x2="1363.28" y2="81.63"/><line class="cls-1" x1="317.37" y1="275.5" x2="271.53" y2="275.5"/><line class="cls-1" x1="326.28" y1="256.13" x2="308.46" y2="256.13"/><line class="cls-1" x1="419.41" y1="237.38" x2="379.28" y2="237.38"/><line class="cls-1" x1="399.77" y1="218" x2="370.97" y2="218"/><line class="cls-1" x1="1430" y1="563.1" x2="1392.84" y2="563.1"/><line class="cls-1" x1="1417.22" y1="543.48" x2="1399.2" y2="543.48"/><line class="cls-1" x1="1350.02" y1="701.18" x2="1306.39" y2="701.18"/><line class="cls-1" x1="1311.25" y1="681.57" x2="1291.75" y2="681.57"/><line class="cls-1" x1="1263.34" y1="681.57" x2="1242.74" y2="681.57"/><line class="cls-1" x1="1264.87" y1="385.64" x2="1214.01" y2="385.64"/><line class="cls-1" x1="1156.67" y1="385.64" x2="1115.27" y2="385.64"/><path class="cls-1" d="M1185,365l0.19-128.41A18.78,18.78,0,0,1,1204,217.83l44.08,0.08"/><path class="cls-1" d="M233.89,603.13a18.78,18.78,0,0,1,18.82-18.73l40.23,0.08"/><line class="cls-1" x1="1107.87" y1="130.97" x2="1063.14" y2="130.97"/><rect class="cls-1" x="1063.01" y="118.69" width="44.86" height="77.22" rx="3" ry="3" transform="translate(2170.88 314.61) rotate(-180)"/><line class="cls-1" x1="1328.2" y1="477.53" x2="1283.47" y2="477.53"/><path class="cls-1" d="M1328.2,504.12V468.25a3,3,0,0,0-3-3h-38.86a3,3,0,0,0-3,3v71.22a3,3,0,0,0,3,3h38.86a3,3,0,0,0,3-3v-4.16"/><rect class="cls-1" x="1291.91" y="487.77" width="27.72" height="10.25" rx="1" ry="1" transform="translate(2611.54 985.8) rotate(-180)"/><line class="cls-1" x1="1383.06" y1="498.15" x2="1338.33" y2="498.15"/><path class="cls-1" d="M1338.2,535.31V560.1a3,3,0,0,0,3,3h38.86a3,3,0,0,0,3-3V488.88a3,3,0,0,0-3-3H1341.2a3,3,0,0,0-3,3v15.24"/><path class="cls-1" d="M1274.24,504.25h-70.48A18.78,18.78,0,0,1,1185,485.47V408"/><path class="cls-1" d="M85.65,156.64V56.16A18.78,18.78,0,0,0,66.88,37.39H0"/><path class="cls-1" d="M1360.69,569.64v13.08a18.78,18.78,0,0,1-18.78,18.78h-45.64a18.78,18.78,0,0,0-18.78,18.78v65.8"/><path class="cls-1" d="M233.64,461.29V667.5a18.78,18.78,0,0,1-18.78,18.78H100.23"/><line class="cls-1" x1="115.33" y1="172.69" x2="77.25" y2="172.69"/><path class="cls-5" d="M102.67,174.19H69.42a1.5,1.5,0,0,1,0-3h33.25v3Z"/><polyline class="cls-6" points="54.09 173.26 56.23 175.35 61.46 170.04"/><rect class="cls-1" x="1259.83" y="209.24" width="86.52" height="17.19" rx="2" ry="2" transform="translate(2606.18 435.66) rotate(-180)"/><line class="cls-1" x1="1332.76" y1="217.83" x2="1294.69" y2="217.83"/><path class="cls-5" d="M1320.1,219.33h-33.25a1.5,1.5,0,0,1,0-3h33.25v3Z"/><polyline class="cls-6" points="1271.53 218.4 1273.67 220.49 1278.89 215.17"/><path class="cls-1" d="M1354.7,217.83h12a18.78,18.78,0,0,0,18.78-18.78V119.78A18.78,18.78,0,0,1,1404.23,101H1430"/><path class="cls-1" d="M1359.17,238.86a18.78,18.78,0,0,0,18.78,18.78"/><circle class="cls-1" cx="1237.74" cy="681.57" r="5.01"/><circle class="cls-1" cx="322.38" cy="275.5" r="5.01"/><circle class="cls-1" cx="37.14" cy="414.83" r="5.01"/><rect class="cls-1" x="342.31" y="261.64" width="27.72" height="27.72" rx="3" ry="3" transform="translate(712.35 551.01) rotate(-180)"/><rect class="cls-2" x="63.67" y="672.41" width="27.72" height="27.72" rx="3" ry="3" transform="translate(155.06 1372.55) rotate(-180)"/></svg>